#!OML:ASF I:\Actors\actors\Patient Classification 2\Patient 1\Session 1\actor1.ASF
:FULLY-SPECIFIED
:DEGREES
597
root -0.621823 17.9046 6.49956 -8.40578 -24.163 -1.26035
lowerback 10.028 -6.52028 0.471539
upperback 3.37171 -8.59286 2.40908
thorax -1.75267 -4.31943 3.18421
lowerneck 8.34536 -22.6205 -18.2839
upperneck -14.3763 -31.5942 39.2724
head 4.5292 -17.2767 12.2379
rclavicle -2.4202e-014 3.02153e-014
rhumerus -27.0906 67.5007 -105.693
rradius 69.5287
rwrist 2.34029
rhand 46.1355 -38.4444
rfingers 7.12502
rthumb 67.2415 -41.3829
lclavicle -2.4202e-014 3.02153e-014
lhumerus -45.8069 -18.9434 80.9462
lradius 60.0513
lwrist -0.566723
lhand 23.8688 -16.3176
lfingers 7.12502
lthumb 48.1206 5.83879
rfemur 2.26509 18.5423 17.1763
rtibia 28.2536
rfoot -23.1478 1.25489
rtoes -21.6605
lfemur 4.93977 13.2421 -10.4716
ltibia 36.397
lfoot -29.07 10.3853
ltoes -59.0712
598
root -0.632425 17.9011 6.54816 -8.37663 -25.5317 -1.34102
lowerback 9.55781 -6.6489 0.472655
upperback 3.14255 -8.7706 2.39729
thorax -1.72854 -4.40701 3.14662
lowerneck 8.36269 -22.6754 -18.1315
upperneck -14.6086 -31.686 39.6727
head 4.55454 -17.3641 12.3247
rclavicle 1.36317e-013 -2.70347e-014
rhumerus -28.0748 66.8776 -106.263
rradius 68.8907
rwrist 4.63767
rhand 38.3243 -35.2266
rfingers 7.12502
rthumb 60.9921 -47.9214
lclavicle 1.36317e-013 -2.70347e-014
lhumerus -48.9664 -17.3761 82.2983
lradius 59.7371
lwrist -0.647613
lhand 23.5408 -16.5462
lfingers 7.12502
lthumb 47.8182 5.75096
rfemur 2.2497 19.3171 17.3311
rtibia 28.1275
rfoot -22.7428 1.69518
rtoes -21.6811
lfemur 5.61494 13.9681 -10.2506
ltibia 36.0609
lfoot -29.2638 10.7404
ltoes -58.9714
599
root -0.640048 17.9033 6.59302 -8.35298 -26.7099 -1.41285
lowerback 9.16442 -6.80795 0.393513
upperback 2.88461 -8.99238 2.43331
thorax -1.75345 -4.51637 3.21559
lowerneck 8.41878 -22.7408 -18.0351
upperneck -14.7324 -31.815 39.9175
head 4.58629 -17.4534 12.3609
rclavicle -2.06736e-014 -2.38542e-014
rhumerus -27.9811 65.7547 -105.727
rradius 68.7576
rwrist 4.0921
rhand 36.3245 -35.2239
rfingers 7.12502
rthumb 59.2849 -49.7336
lclavicle -2.06736e-014 -2.38542e-014
lhumerus -51.8073 -15.4174 83.483
lradius 59.3198
lwrist -0.853564
lhand 22.9946 -16.8732
lfingers 7.12502
lthumb 47.3139 5.65343
rfemur 2.28824 19.7476 17.3936
rtibia 27.8767
rfoot -22.2177 2.16046
rtoes -22.1487
lfemur 6.23038 14.6101 -10.0499
ltibia 35.7416
lfoot -29.3475 11.0758
ltoes -58.9241
600
root -0.639181 17.9138 6.63868 -8.26975 -27.6366 -1.58425
lowerback 8.8052 -7.02338 0.439648
upperback 2.59861 -9.27467 2.53786
thorax -1.82983 -4.65497 3.29854
lowerneck 8.46965 -22.7988 -17.9568
upperneck -14.7563 -31.9269 39.9279
head 4.58766 -17.5116 12.3311
rclavicle -8.29429e-014 4.29375e-014
rhumerus -27.8817 64.8718 -104.929
rradius 68.0477
rwrist 6.96953
rhand 32.8079 -30.7042
rfingers 7.12502
rthumb 56.2121 -47.9282
lclavicle -8.29429e-014 4.29375e-014
lhumerus -54.2462 -13.172 84.4992
lradius 58.7952
lwrist -1.0241
lhand 22.502 -17.2782
lfingers 7.12502
lthumb 46.8583 5.45014
rfemur 2.37998 19.88 17.4658
rtibia 27.5255
rfoot -21.6374 2.69509
rtoes -22.2085
lfemur 6.74577 15.0206 -9.8502
ltibia 35.4071
lfoot -29.2015 11.6377
ltoes -58.9984
601
root -0.63693 17.9281 6.6825 -8.24523 -28.6022 -1.81205
lowerback 8.49491 -7.18363 0.516337
upperback 2.39395 -9.48256 2.6667
thorax -1.85218 -4.75832 3.38133
lowerneck 8.44075 -22.8124 -17.8487
upperneck -14.7258 -31.9614 39.8583
head 4.57192 -17.5193 12.287
rclavicle 6.41081e-014 -1.11319e-014
rhumerus -26.4146 63.2991 -102.845
rradius 68.4168
rwrist 4.87144
rhand 34.5906 -33.8134
rfingers 7.12502
rthumb 57.7799 -49.7306
lclavicle 6.41081e-014 -1.11319e-014
lhumerus -56.2213 -10.9024 85.2975
lradius 58.2142
lwrist -1.22679
lhand 22.1082 -17.5084
lfingers 7.12502
lthumb 46.4937 5.37767
rfemur 2.60222 20.0183 17.6073
rtibia 27.0934
rfoot -20.9834 3.30881
rtoes -21.718
lfemur 7.37631 15.4378 -9.57518
ltibia 35.0432
lfoot -28.9174 12.2613
ltoes -59.0243
602
root -0.637629 17.9416 6.71998 -8.30194 -29.8328 -1.91944
lowerback 8.20924 -7.17214 0.376564
upperback 2.24911 -9.48218 2.79629
thorax -1.80136 -4.75967 3.55813
lowerneck 8.29319 -22.7587 -17.7121
upperneck -14.5796 -31.8958 39.6772
head 4.54994 -17.4565 12.2194
rclavicle 1.01554e-013 0
rhumerus -24.8953 61.5489 -100.6
rradius 68.5298
rwrist 4.70959
rhand 36.9853 -34.8415
rfingers 7.12502
rthumb 59.8526 -48.7756
lclavicle 1.01554e-013 0
lhumerus -57.7418 -8.69641 85.8863
lradius 57.5635
lwrist -1.69247
lhand 21.8637 -17.7376
lfingers 7.12502
lthumb 46.2672 5.24485
rfemur 2.83058 20.4001 17.6681
rtibia 26.5863
rfoot -20.2949 3.95076
rtoes -20.9104
lfemur 8.12883 16.1238 -9.32118
ltibia 34.6631
lfoot -28.7669 12.5973
ltoes -58.9201
603
root -0.636136 17.9553 6.75069 -8.262 -31.0257 -2.0411
lowerback 7.95697 -7.06268 0.163986
upperback 2.08228 -9.35436 2.96886
thorax -1.78018 -4.69686 3.81372
lowerneck 8.05249 -22.6668 -17.5454
upperneck -14.3819 -31.7523 39.377
head 4.50347 -17.3393 12.1234
rclavicle 3.53122e-014 -3.33958e-014
rhumerus -23.3013 59.302 -98.1187
rradius 68.6235
rwrist 5.6786
rhand 32.0682 -32.9698
rfingers 7.12502
rthumb 55.5561 -50.6984
lclavicle 3.53122e-014 -3.33958e-014
lhumerus -58.8848 -6.70743 86.3863
lradius 56.9092
lwrist -2.33227
lhand 21.902 -17.9802
lfingers 7.12502
lthumb 46.3027 4.98726
rfemur 2.94062 20.7314 17.7029
rtibia 26.045
rfoot -19.6249 4.39401
rtoes -20.9366
lfemur 8.76339 16.8165 -9.07768
ltibia 34.2713
lfoot -28.7295 12.7302
ltoes -58.8078
604
root -0.629461 17.9711 6.78055 -8.09187 -31.7341 -2.31472
lowerback 7.69761 -7.00693 0.137612
upperback 1.93914 -9.28291 3.10707
thorax -1.76319 -4.6615 3.93817
lowerneck 7.6369 -22.5792 -17.2739
upperneck -14.0618 -31.6059 39.001
head 4.48403 -17.197 11.9663
rclavicle 1.34242e-013 -1.27222e-014
rhumerus -21.6164 56.3121 -95.4614
rradius 69.0244
rwrist 7.01092
rhand 29.7251 -31.5112
rfingers 7.12502
rthumb 53.4597 -50.7081
lclavicle 1.34242e-013 -1.27222e-014
lhumerus -59.7174 -5.24861 86.858
lradius 56.395
lwrist -2.83417
lhand 22.2397 -17.9075
lfingers 7.12502
lthumb 46.6156 4.92622
rfemur 3.07649 20.7011 17.843
rtibia 25.4955
rfoot -19.1074 4.53685
rtoes -21.9585
lfemur 9.18283 17.1013 -8.82499
ltibia 33.8909
lfoot -28.7302 12.8253
ltoes -58.7985
605
root -0.622243 17.9869 6.81112 -7.9233 -32.0859 -2.60155
lowerback 7.36063 -6.96474 0.198796
upperback 1.88158 -9.22786 3.13322
thorax -1.64646 -4.63546 3.88543
lowerneck 7.03863 -22.4282 -16.8892
upperneck -13.6014 -31.3736 38.5955
head 4.48826 -16.9935 11.7867
rclavicle -5.20567e-015 -7.95139e-015
rhumerus -20.1078 52.5394 -92.9639
rradius 69.8872
rwrist 8.61035
rhand 28.888 -30.7165
rfingers 7.12502
rthumb 52.7045 -50.3943
lclavicle -5.20567e-015 -7.95139e-015
lhumerus -60.2958 -4.37736 87.2685
lradius 56.098
lwrist -3.22559
lhand 22.7163 -17.7899
lfingers 7.12502
lthumb 47.0566 4.85135
rfemur 3.31791 20.5381 18.0142
rtibia 24.9312
rfoot -18.7374 4.61532
rtoes -22.1488
lfemur 9.49707 17.1154 -8.63302
ltibia 33.5462
lfoot -28.8687 12.8123
ltoes -58.8546
606
root -0.612341 17.9981 6.83599 -7.84639 -32.2069 -2.82973
lowerback 7.08309 -6.93181 0.229818
upperback 1.86369 -9.18802 3.07992
thorax -1.52869 -4.61648 3.77449
lowerneck 6.2827 -22.1306 -16.44
upperneck -12.9599 -30.939 38.0386
head 4.47662 -16.6657 11.5902
rclavicle -7.58115e-014 2.38542e-015
rhumerus -19.1343 48.1771 -90.8659
rradius 71.2636
rwrist 10.7329
rhand 28.3459 -29.9546
rfingers 7.12502
rthumb 52.2139 -49.9323
lclavicle -7.58115e-014 2.38542e-015
lhumerus -60.6964 -3.93659 87.6623
lradius 56.0229
lwrist -3.57166
lhand 23.1955 -17.7858
lfingers 7.12502
lthumb 47.4994 4.65727
rfemur 3.64336 20.2884 18.1441
rtibia 24.3858
rfoot -18.4487 4.71831
rtoes -21.6536
lfemur 9.78026 16.9762 -8.53163
ltibia 33.2221
lfoot -29.1217 12.7462
ltoes -58.8664
607
root -0.59547 18.0027 6.85003 -7.83808 -32.2298 -3.00526
lowerback 7.02093 -6.8603 0.213133
upperback 1.83403 -9.09484 2.98965
thorax -1.54324 -4.56836 3.6792
lowerneck 5.25562 -21.7033 -15.8403
upperneck -12.0162 -30.3156 37.1273
head 4.45052 -16.1948 11.2807
rclavicle -1.00983e-013 1.03368e-014
rhumerus -18.5906 43.4013 -89.0115
rradius 72.9876
rwrist 13.54
rhand 27.7998 -28.2531
rfingers 7.12502
rthumb 51.7184 -48.5246
lclavicle -1.00983e-013 1.03368e-014
lhumerus -60.9195 -3.98091 88.1599
lradius 56.1078
lwrist -3.7262
lhand 23.5836 -17.8143
lfingers 7.12502
lthumb 47.8576 4.46471
rfemur 3.94545 20.0555 18.2225
rtibia 23.9119
rfoot -18.252 4.7823
rtoes -21.3077
lfemur 10.0187 16.7623 -8.52909
ltibia 32.8973
lfoot -29.3673 12.843
ltoes -58.7428
608
root -0.583099 18.0038 6.85802 -7.69148 -32.3718 -3.09286
lowerback 6.82911 -6.63551 0.0311994
upperback 1.77185 -8.81019 2.90568
thorax -1.5051 -4.42484 3.65044
lowerneck 4.07175 -21.0999 -15.169
upperneck -10.9438 -29.4249 35.9838
head 4.37615 -15.5726 10.9379
rclavicle -1.14053e-014 -4.85035e-014
rhumerus -18.0122 38.4564 -87.0751
rradius 75.614
rwrist 13.7931
rhand 23.7109 -27.2031
rfingers 7.12502
rthumb 47.9751 -49.4275
lclavicle -1.14053e-014 -4.85035e-014
lhumerus -60.9462 -4.5002 88.7268
lradius 56.2888
lwrist -3.87848
lhand 23.9558 -17.9758
lfingers 7.12502
lthumb 48.2008 4.14282
rfemur 3.9717 20.0512 18.1871
rtibia 23.5284
rfoot -18.14 4.82276
rtoes -21.2088
lfemur 10.069 16.7258 -8.64024
ltibia 32.58
lfoot -29.617 13.0813
ltoes -58.5441
609
root -0.57761 18.0043 6.86585 -7.40748 -32.2754 -3.18479
lowerback 6.386 -6.40407 -0.218105
upperback 1.72163 -8.52451 2.81794
thorax -1.3074 -4.28309 3.62187
lowerneck 2.8237 -20.2671 -14.4661
upperneck -9.90175 -28.1807 34.7382
head 4.21893 -14.7837 10.6321
rclavicle 9.40251e-014 -3.97569e-015
rhumerus -17.3999 33.729 -85.0438
rradius 78.2546
rwrist 14.708
rhand 19.8841 -25.3696
rfingers 7.12502
rthumb 44.4271 -49.0913
lclavicle 9.40251e-014 -3.97569e-015
lhumerus -60.7001 -5.30746 89.2125
lradius 56.5115
lwrist -4.23143
lhand 24.4149 -18.0971
lfingers 7.12502
lthumb 48.6234 3.8195
rfemur 3.89527 20.041 18.1579
rtibia 23.2267
rfoot -18.2069 4.69213
rtoes -21.6459
lfemur 9.92922 16.5201 -8.82092
ltibia 32.2982
lfoot -29.9313 13.3207
ltoes -58.3261
610
root -0.566034 18.0045 6.87237 -7.20571 -31.805 -3.31688
lowerback 6.06139 -6.21957 -0.390695
upperback 1.70839 -8.29336 2.70545
thorax -1.14881 -4.16821 3.54618
lowerneck 1.35146 -19.2416 -13.5559
upperneck -8.74541 -26.6477 33.2489
head 4.02075 -13.8346 10.2451
rclavicle 1.26005e-013 -6.36111e-015
rhumerus -16.6799 29.1695 -82.8982
rradius 80.9166
rwrist 15.8772
rhand 15.6997 -23.5795
rfingers 7.12502
rthumb 40.5098 -48.6497
lclavicle 1.26005e-013 -6.36111e-015
lhumerus -60.133 -6.30887 89.6441
lradius 56.6509
lwrist -4.50965
lhand 24.4863 -18.0926
lfingers 7.12502
lthumb 48.6891 3.79214
rfemur 3.96201 19.8258 18.1825
rtibia 22.9837
rfoot -18.371 4.41772
rtoes -22.2488
lfemur 9.76565 15.89 -9.05329
ltibia 32.0861
lfoot -30.3066 13.4808
ltoes -58.0635
